# xmcd
#
# Track frame offsets: 
#        150
#        18603
#        34966
#        58983
#        82929
#        103361
#        125019
#        141738
#        156436
#        177131
#        191613
#        207181
#        223167
#        246891
#        275934
#        292841
#        310203
#
# Disc length: 4309 seconds
#
# Revision: 0
# Processed by: cddbd v1.5.2PL0 Copyright (c) Steve Scherf et al.
# Submitted via: ExactAudioCopyFreeDBPlugin 1.0
#
DISCID=1610d311
DTITLE=Asha Bhosle - Phire Elam
DYEAR=2003
DGENRE=Bengali Modern
TTITLE0=Asha Bhosle with Rahul Dev Burman - Phire Elam Dure Giye (Duet
TTITLE0=)
TTITLE1=Khub Chena Chena
TTITLE2=Banshi Shune Ki
TTITLE3=Kotha Kotha Khunjechhi Tomay
TTITLE4=Na Deko Na
TTITLE5=Rimi Jhimi Ei Shrabone
TTITLE6=Aaj Dole Mon Kar Isharate
TTITLE7=Uth Chhunri Tor Biya Legechhe
TTITLE8=Jwole Jay Jwole Jay
TTITLE9=Chande Jatra
TTITLE10=Ekti Katha Ami Je Shudhu Jani
TTITLE11=Chhande Chhande Gaane Gaane
TTITLE12=Bhebechhi Bhuley Jabe
TTITLE13=Tumi Jabe Go, Chale Jabe Go
TTITLE14=Raat Dupure Kothay Jabe
TTITLE15=Ki Kore Aasi Tomar Pashe
TTITLE16=Asbo Aar Ekdin Aaj Jai
EXTD=
EXTT0=
EXTT1=
EXTT2=
EXTT3=
EXTT4=
EXTT5=
EXTT6=
EXTT7=
EXTT8=
EXTT9=
EXTT10=
EXTT11=
EXTT12=
EXTT13=
EXTT14=
EXTT15=
EXTT16=
PLAYORDER=
